<svg xmlns="http://www.w3.org/2000/svg" width="64" height="64" viewBox="0 0 64 64" fill="none">
<path d="M16.2427 26.3548C16.2427 23.5816 18.6169 21.3334 21.5456 21.3334H53.364C56.2927 21.3334 58.6669 23.5815 58.6669 26.3548V48.3119C58.6669 51.0852 56.2927 53.3334 53.364 53.3334H21.5456C18.6169 53.3334 16.2427 51.0852 16.2427 48.3119V26.3548Z" fill="#FFC38C"/>
<path d="M5.3335 15.6882C5.3335 12.9149 7.72127 10.6667 10.6667 10.6667H42.6671C45.6126 10.6667 48.0003 12.9149 48.0003 15.6882V37.6453C48.0003 40.4186 45.6125 42.6668 42.6671 42.6668H10.6667C7.72127 42.6668 5.3335 40.4186 5.3335 37.6453V15.6882Z" fill="#FF983A"/>
<path fill-rule="evenodd" clip-rule="evenodd" d="M25.0086 18.8082C24.5293 18.2263 23.669 18.1431 23.0871 18.6224L19.2538 21.7795C18.6719 22.2587 18.5887 23.119 19.068 23.7009L22.2251 27.5342C22.7043 28.1161 23.5646 28.1993 24.1465 27.72C24.7284 27.2408 24.8116 26.3805 24.3324 25.7986L22.0431 23.019L24.8227 20.7297C25.4046 20.2504 25.4878 19.3902 25.0086 18.8082Z" fill="white"/>
<path fill-rule="evenodd" clip-rule="evenodd" d="M22.651 24.4597C23.9179 24.4597 25.1725 24.7093 26.343 25.1941C27.5136 25.679 28.5771 26.3897 29.473 27.2855C30.3689 28.1814 31.0796 29.245 31.5644 30.4155C32.0493 31.5861 32.2988 32.8406 32.2988 34.1076C32.2988 34.8615 32.9099 35.4726 33.6638 35.4726C34.4177 35.4726 35.0288 34.8615 35.0288 34.1076C35.0288 32.4821 34.7087 30.8726 34.0866 29.3708C33.4646 27.869 32.5528 26.5045 31.4034 25.3551C30.254 24.2057 28.8895 23.294 27.3878 22.6719C25.886 22.0499 24.2764 21.7297 22.651 21.7297C21.8971 21.7297 21.286 22.3409 21.286 23.0947C21.286 23.8486 21.8971 24.4597 22.651 24.4597Z" fill="white"/>
</svg>