<svg width="110" height="24" viewBox="0 0 110 24" fill="none" xmlns="http://www.w3.org/2000/svg">
<g clip-path="url(#clip0_7_2)">
<path d="M93.7363 18.7441L95.8164 10.4336H99.2832L95.8262 21H93.7754L93.7363 18.7441ZM92.5059 10.4336L94.5566 18.7441L94.5371 21H92.4766L89.0293 10.4336H92.5059ZM110.133 18.4609V21H100.211V18.8516L104.781 14.0469C105.185 13.5846 105.51 13.1712 105.758 12.8066C106.005 12.4355 106.184 12.1003 106.295 11.8008C106.412 11.5013 106.471 11.2311 106.471 10.9902C106.471 10.5801 106.409 10.2383 106.285 9.96484C106.168 9.6849 105.992 9.47331 105.758 9.33008C105.53 9.18685 105.247 9.11523 104.908 9.11523C104.57 9.11523 104.273 9.21289 104.02 9.4082C103.766 9.60352 103.567 9.87044 103.424 10.209C103.287 10.5475 103.219 10.9284 103.219 11.3516H99.918C99.918 10.4792 100.13 9.68164 100.553 8.95898C100.982 8.23633 101.578 7.66016 102.34 7.23047C103.102 6.79427 103.984 6.57617 104.986 6.57617C106.035 6.57617 106.913 6.73893 107.623 7.06445C108.333 7.38997 108.867 7.86198 109.225 8.48047C109.589 9.09245 109.771 9.83138 109.771 10.6973C109.771 11.1921 109.693 11.6673 109.537 12.123C109.381 12.5788 109.156 13.0312 108.863 13.4805C108.57 13.9232 108.212 14.3789 107.789 14.8477C107.372 15.3164 106.897 15.8145 106.363 16.3418L104.527 18.4609H110.133Z" fill="#4255FF"/>
<g clip-path="url(#clip1_7_2)">
<path d="M33.6222 8.16613H30.1458C30.0757 8.16613 30.0088 8.19385 29.9592 8.24402C29.9096 8.29352 29.8818 8.36085 29.8818 8.43148V15.777C29.8818 17.6035 28.7446 18.2431 27.4255 18.2431C26.1064 18.2431 24.9693 17.5586 24.9693 15.777V8.43082C24.9693 8.36085 24.9415 8.29286 24.8919 8.24336C24.8422 8.19385 24.7754 8.16547 24.7053 8.16547H21.2289C21.1588 8.16547 21.092 8.19319 21.0424 8.24336C20.9927 8.29286 20.965 8.36019 20.965 8.43082V16.1024C20.965 20.0287 24.0133 21.8545 27.4222 21.8545C30.8311 21.8545 33.8795 20.028 33.8795 16.1024V8.43082C33.8795 8.36151 33.8524 8.29484 33.8041 8.24534C33.7565 8.19583 33.691 8.16745 33.6222 8.16613Z" fill="#4255FF"/>
<path d="M60.7795 3.42407H57.3495C57.2039 3.42407 57.0862 3.54289 57.0862 3.68877V21.1456C57.0862 21.2921 57.2039 21.4103 57.3495 21.4103H60.7795C60.9251 21.4103 61.0428 21.2915 61.0428 21.1456V3.68943C61.0428 3.54289 60.9251 3.42407 60.7795 3.42407Z" fill="#4255FF"/>
<path d="M55.1723 8.16595H43.1165C43.0463 8.16595 42.9795 8.19368 42.9299 8.24384C42.8803 8.29335 42.8525 8.36068 42.8525 8.43131V11.345C42.8525 11.4149 42.8803 11.4829 42.9299 11.5324C42.9795 11.5819 43.0463 11.6103 43.1165 11.6103H48.9545L41.8648 20.9817C41.8351 21.0206 41.8172 21.0675 41.8126 21.117C41.8079 21.1658 41.8172 21.2153 41.839 21.2596C41.8609 21.3038 41.8946 21.3407 41.9363 21.3672C41.9779 21.3936 42.0262 21.4068 42.0752 21.4068H54.7145C54.7847 21.4068 54.8515 21.379 54.9011 21.3295C54.9507 21.28 54.9785 21.2127 54.9785 21.1421V18.2284C54.9785 18.1584 54.9507 18.0911 54.9011 18.0409C54.8515 17.9914 54.7847 17.9631 54.7145 17.9631H48.4127L55.3827 8.58841C55.4118 8.54881 55.429 8.5026 55.4336 8.45375C55.4376 8.40491 55.4283 8.35606 55.4065 8.31249C55.3847 8.26893 55.3509 8.23196 55.3099 8.20622C55.2689 8.17981 55.2206 8.16595 55.1723 8.16595Z" fill="#4255FF"/>
<path d="M85.7401 8.20447H83.7926V3.68943C83.7926 3.61946 83.7648 3.55147 83.7152 3.50196C83.6655 3.45246 83.5987 3.42407 83.5286 3.42407H80.1025C80.0324 3.42407 79.9656 3.4518 79.9159 3.50196C79.8663 3.55147 79.8385 3.6188 79.8385 3.68943V8.20447H77.9042C77.8341 8.20447 77.7673 8.23219 77.7177 8.28236C77.668 8.33187 77.6403 8.3992 77.6403 8.46983V11.3835C77.6403 11.4535 77.668 11.5208 77.7177 11.5709C77.7673 11.6205 77.8341 11.6482 77.9042 11.6482H79.8346V21.1436C79.8346 21.2136 79.8624 21.2809 79.912 21.3311C79.9616 21.3806 80.0284 21.409 80.0985 21.409H83.5246C83.5948 21.409 83.6616 21.3812 83.7112 21.3311C83.7608 21.2816 83.7886 21.2142 83.7886 21.1436V11.6508H85.7362C85.8063 11.6508 85.8731 11.6231 85.9227 11.5736C85.9723 11.5241 86.0001 11.4568 86.0001 11.3861V8.47181C86.0008 8.40184 85.9736 8.33451 85.9254 8.28434C85.8764 8.23417 85.8102 8.20579 85.7401 8.20447Z" fill="#4255FF"/>
<path d="M39.9663 8.16595H36.5614C36.4158 8.16595 36.2981 8.28477 36.2981 8.43065V21.146C36.2981 21.2926 36.4158 21.4107 36.5614 21.4107H39.9663C40.1119 21.4107 40.2296 21.2919 40.2296 21.146V8.43065C40.2296 8.28477 40.1119 8.16595 39.9663 8.16595Z" fill="#4255FF"/>
<path d="M38.2634 2.00013C37.8123 2.00608 37.3723 2.14601 36.9992 2.40213C36.6261 2.65825 36.337 3.01932 36.1677 3.4398C35.9983 3.86028 35.9553 4.32168 36.046 4.76658C36.1359 5.21149 36.3549 5.61942 36.6744 5.93957C36.9939 6.25972 37.4008 6.47821 37.844 6.56732C38.2866 6.65643 38.7457 6.6122 39.1638 6.43992C39.5819 6.26764 39.9398 5.97587 40.1931 5.60028C40.4465 5.22469 40.5841 4.78243 40.5887 4.32828C40.5914 4.02134 40.5325 3.71638 40.4167 3.43254C40.301 3.1487 40.1296 2.8906 39.9133 2.67343C39.697 2.45692 39.4396 2.2853 39.1565 2.16978C38.872 2.05426 38.5691 1.99683 38.2634 2.00013Z" fill="#4255FF"/>
<path d="M10.0515 2.88796C8.59746 2.79225 7.14142 3.03648 5.79651 3.60152C4.45227 4.16656 3.25621 5.03656 2.30293 6.1442C1.34966 7.25184 0.662983 8.56542 0.299137 9.9833C-0.0647082 11.4012 -0.0971236 12.8851 0.204537 14.3175C0.506198 15.7505 1.13466 17.0932 2.03898 18.2411C2.94396 19.389 4.10033 20.3111 5.41944 20.9342C6.73788 21.558 8.18202 21.8656 9.63872 21.8346C11.0954 21.8029 12.525 21.4333 13.8163 20.7534C13.8573 20.7323 13.9037 20.7224 13.95 20.725C13.9963 20.7276 14.0413 20.7422 14.0796 20.7679C14.3535 20.9514 14.6393 21.1158 14.935 21.2603C15.9597 21.7587 17.085 22.0115 18.2228 21.9996C18.293 21.9996 18.3598 21.9719 18.4094 21.9224C18.459 21.8729 18.4868 21.8056 18.4868 21.7349V18.5163C18.4874 18.453 18.4663 18.3922 18.4259 18.3434C18.3856 18.2945 18.33 18.2622 18.2678 18.2516C17.9648 18.2034 17.6685 18.1183 17.386 17.9975C17.3509 17.9816 17.3198 17.9592 17.2947 17.9302C17.2696 17.9011 17.251 17.8675 17.2404 17.8305C17.2299 17.7935 17.2272 17.7552 17.2325 17.717C17.2378 17.6793 17.2517 17.643 17.2722 17.6107C18.1924 16.2265 18.7342 14.6231 18.842 12.9623C18.9505 11.3015 18.6211 9.64071 17.8881 8.14758C17.1551 6.65445 16.0444 5.38245 14.6664 4.45766C13.2891 3.53353 11.6935 2.98962 10.0409 2.88202L10.0515 2.88796ZM3.7259 12.353C3.72458 11.217 4.05865 10.1054 4.68579 9.16016C5.31293 8.21491 6.20534 7.47759 7.24925 7.04193C8.29316 6.60626 9.44291 6.49207 10.5516 6.7132C11.6604 6.93433 12.6791 7.48155 13.4789 8.28422C14.2787 9.08755 14.8232 10.1114 15.0435 11.2256C15.2644 12.3398 15.1507 13.495 14.718 14.5452C14.2854 15.5948 13.5524 16.4918 12.6117 17.1229C11.6716 17.7539 10.5662 18.0899 9.43563 18.0892C7.92137 18.0892 6.46863 17.4853 5.39761 16.4093C4.32658 15.3334 3.72326 13.8745 3.72193 12.3524L3.7259 12.353Z" fill="#4255FF"/>
<path d="M69.4721 7.62565C68.3078 7.71476 67.1832 8.09102 66.1988 8.72207C65.2145 9.35311 64.4001 10.2192 63.8285 11.2423C63.257 12.2661 62.946 13.4153 62.9236 14.589C62.9011 15.7626 63.167 16.9231 63.6982 17.968C64.2294 19.0129 65.01 19.91 65.9693 20.5787C66.9292 21.2473 68.0379 21.6678 69.1982 21.8018C70.3586 21.9358 71.5335 21.78 72.619 21.3477C73.7046 20.9153 74.6672 20.2202 75.4207 19.3232C75.4438 19.2961 75.4617 19.2651 75.4729 19.2307C75.4842 19.1971 75.4881 19.1608 75.4848 19.1251C75.4815 19.0895 75.4716 19.0545 75.4551 19.0235C75.4385 18.9918 75.4154 18.9641 75.3876 18.9416L73.3302 17.2808C73.2773 17.2386 73.2098 17.2181 73.1423 17.2241C73.0748 17.23 73.012 17.2623 72.9677 17.3138C72.5231 17.8287 71.9535 18.2188 71.3145 18.4459C70.6755 18.673 69.9881 18.7291 69.3206 18.6089C68.6531 18.4888 68.028 18.1964 67.5067 17.7601C66.9854 17.3237 66.5858 16.7594 66.347 16.121H76.7457C76.8079 16.1224 76.8688 16.1006 76.9171 16.061C76.9654 16.0214 76.9978 15.9653 77.009 15.9039C77.0745 15.5164 77.1069 15.1236 77.1063 14.7302C77.1063 13.748 76.9038 12.777 76.5129 11.8773C76.1219 10.9776 75.5497 10.169 74.8326 9.50164C74.1154 8.83428 73.2693 8.32337 72.3465 8.00058C71.425 7.67846 70.4459 7.5504 69.4721 7.62565ZM66.347 13.3355C66.6275 12.5856 67.1296 11.9394 67.7852 11.4832C68.4408 11.0271 69.2194 10.7829 70.0166 10.7829C70.8137 10.7829 71.5923 11.0271 72.2479 11.4832C72.9035 11.9394 73.405 12.5856 73.6861 13.3355H66.347Z" fill="#4255FF"/>
</g>
</g>
<defs>
<clipPath id="clip0_7_2">
<rect width="110" height="24" fill="white"/>
</clipPath>
<clipPath id="clip1_7_2">
<rect width="86" height="20" fill="white" transform="translate(0 2)"/>
</clipPath>
</defs>
</svg>
